<svg width="57" height="57" viewBox="0 0 57 57" fill="none" xmlns="http://www.w3.org/2000/svg">
<rect width="57" height="57" fill="#1FAABF"/>
<path d="M24.2284 19.3495L28.9193 21.9752C27.0094 25.105 26.0457 28.2653 26.0282 31.4561L26.1192 37.1634L18.2931 37.2883L18.2113 32.162C18.1771 30.0203 18.7332 27.7325 19.8794 25.2985C21.048 22.8414 22.4977 20.8584 24.2284 19.3495ZM35.9505 19.1625L40.6415 21.7882C38.7315 24.918 37.7678 28.0783 37.7503 31.2691L37.8414 36.9764L30.0152 37.1012L29.9335 31.9749C29.8993 29.8333 30.4553 27.5455 31.6015 25.1115C32.7702 22.6544 34.2198 20.6714 35.9505 19.1625Z" fill="white"/>
</svg>
