<svg xmlns="http://www.w3.org/2000/svg" viewBox="0 0 777.61 998.5"><defs><style>.cls-1{font-size:175.44px;font-family:Aileron-Thin, Aileron;font-weight:200;}.cls-2{fill:#00e4ff;}</style></defs><title>Asset 8</title><g id="Layer_2" data-name="Layer 2"><g id="Layer_2-2" data-name="Layer 2"><text class="cls-1" transform="translate(1.63 959.38) scale(1.07 1)">ALFALAH</text><rect class="cls-2" x="418.18" y="507.4" width="0.32" height="68.97" transform="translate(-260.64 454.53) rotate(-45)"/><rect class="cls-2" x="388.17" y="471.62" width="65.06" height="1.79" transform="translate(-210.9 435.88) rotate(-45)"/><rect class="cls-2" x="315.02" y="539.9" width="74.79" height="1.79" transform="translate(-279.18 407.59) rotate(-45)"/><rect class="cls-2" x="350.95" y="440.48" width="0.32" height="68.32" transform="translate(-232.79 387.29) rotate(-45)"/><rect class="cls-2" x="277.09" y="97.85" width="72.68" height="86.78" transform="translate(-8.07 263) rotate(-45)"/><rect class="cls-2" x="255.45" y="135.46" width="76.22" height="172.4" transform="translate(-70.75 272.5) rotate(-45)"/><path class="cls-2" d="M327.89,65.42Q418.7,157,509.52,248.67l-60.94-.43L386.82,247,266.58,126.73Z"/><path class="cls-2" d="M574.64,185.63,391.65,0l-56.1,56.11L456.62,177.18l-9.18,9.18,64.26,65.08Z"/><rect class="cls-2" x="262.85" y="519.71" width="85.79" height="234.74" transform="translate(-360.93 402.79) rotate(-45)"/><polygon class="cls-2" points="387.98 523.48 379.49 514.99 326.61 567.88 325.34 566.61 309.78 582.17 368.3 640.69 442.61 566.38 393.85 517.61 387.98 523.48"/><polygon class="cls-2" points="406.82 504.64 394.07 517.38 442.84 566.15 501.59 507.4 444.34 450.15 398.33 496.15 406.82 504.64"/><polygon class="cls-2" points="327.07 450.38 375.38 498.69 388.13 485.94 397.06 494.88 443.07 448.88 385.82 391.63 327.07 450.38"/><polygon class="cls-2" points="369.28 504.79 375.15 498.92 326.84 450.61 268.09 509.36 325.34 566.61 378.23 513.73 369.28 504.79"/><rect class="cls-2" x="306.51" y="598.88" width="273.88" height="85.79" transform="translate(-323.93 501.54) rotate(-45)"/><path class="cls-2" d="M768.77,380.77,582.42,567.13V194.42Z"/><path class="cls-2" d="M0,392.47,187.54,580l17.22-110.67-94.85-95,7.48-7.49,94.85,94.85,109.19-15.74L180.61,305.11q8.31-55,16.61-110Z"/><path class="cls-2" d="M397.89,379,577.2,199.64q-2.21,88.13-3.35,178.17-1.11,88.9-1.13,176Z"/><path class="cls-2" d="M326.14,439.86l54.52-54.52L203.15,203.59l-13.26,100Z"/><path class="cls-2" d="M388.58,256.58h0l-56.53,56.53,58.16,58.15L501.69,255.73Z"/><path class="cls-2" d="M194.13,570.44,310,453.14l-100,15Q202.06,519.28,194.13,570.44Z"/></g></g></svg>