<svg xmlns="http://www.w3.org/2000/svg" viewBox="0 0 338.62 299.23"><defs><style>.cls-1{fill:#fff;}</style></defs><title>Asset 8</title><g id="Layer_2" data-name="Layer 2"><g id="Layer_1-2" data-name="Layer 1"><ellipse class="cls-1" cx="8" cy="9" rx="8" ry="9"/><ellipse class="cls-1" cx="43.85" cy="9" rx="8" ry="9"/><ellipse class="cls-1" cx="79.69" cy="9" rx="8" ry="9"/><ellipse class="cls-1" cx="115.54" cy="9" rx="8" ry="9"/><ellipse class="cls-1" cx="151.39" cy="9" rx="8" ry="9"/><ellipse class="cls-1" cx="8" cy="49.18" rx="8" ry="9"/><ellipse class="cls-1" cx="43.85" cy="49.18" rx="8" ry="9"/><ellipse class="cls-1" cx="79.69" cy="49.18" rx="8" ry="9"/><ellipse class="cls-1" cx="115.54" cy="49.18" rx="8" ry="9"/><ellipse class="cls-1" cx="151.39" cy="49.18" rx="8" ry="9"/><ellipse class="cls-1" cx="8" cy="89.35" rx="8" ry="9"/><ellipse class="cls-1" cx="43.85" cy="89.35" rx="8" ry="9"/><ellipse class="cls-1" cx="79.69" cy="89.35" rx="8" ry="9"/><ellipse class="cls-1" cx="115.54" cy="89.35" rx="8" ry="9"/><ellipse class="cls-1" cx="151.39" cy="89.35" rx="8" ry="9"/><ellipse class="cls-1" cx="8" cy="129.53" rx="8" ry="9"/><ellipse class="cls-1" cx="43.85" cy="129.53" rx="8" ry="9"/><ellipse class="cls-1" cx="79.69" cy="129.53" rx="8" ry="9"/><ellipse class="cls-1" cx="115.54" cy="129.53" rx="8" ry="9"/><ellipse class="cls-1" cx="151.39" cy="129.53" rx="8" ry="9"/><ellipse class="cls-1" cx="187.23" cy="9" rx="8" ry="9"/><ellipse class="cls-1" cx="223.08" cy="9" rx="8" ry="9"/><ellipse class="cls-1" cx="258.92" cy="9" rx="8" ry="9"/><ellipse class="cls-1" cx="294.77" cy="9" rx="8" ry="9"/><ellipse class="cls-1" cx="330.62" cy="9" rx="8" ry="9"/><ellipse class="cls-1" cx="187.23" cy="49.18" rx="8" ry="9"/><ellipse class="cls-1" cx="223.08" cy="49.18" rx="8" ry="9"/><ellipse class="cls-1" cx="258.92" cy="49.18" rx="8" ry="9"/><ellipse class="cls-1" cx="294.77" cy="49.18" rx="8" ry="9"/><ellipse class="cls-1" cx="330.62" cy="49.18" rx="8" ry="9"/><ellipse class="cls-1" cx="187.23" cy="89.35" rx="8" ry="9"/><ellipse class="cls-1" cx="223.08" cy="89.35" rx="8" ry="9"/><ellipse class="cls-1" cx="258.92" cy="89.35" rx="8" ry="9"/><ellipse class="cls-1" cx="294.77" cy="89.35" rx="8" ry="9"/><ellipse class="cls-1" cx="330.62" cy="89.35" rx="8" ry="9"/><ellipse class="cls-1" cx="187.23" cy="129.53" rx="8" ry="9"/><ellipse class="cls-1" cx="223.08" cy="129.53" rx="8" ry="9"/><ellipse class="cls-1" cx="258.92" cy="129.53" rx="8" ry="9"/><ellipse class="cls-1" cx="294.77" cy="129.53" rx="8" ry="9"/><ellipse class="cls-1" cx="330.62" cy="129.53" rx="8" ry="9"/><ellipse class="cls-1" cx="8" cy="169.7" rx="8" ry="9"/><ellipse class="cls-1" cx="43.85" cy="169.7" rx="8" ry="9"/><ellipse class="cls-1" cx="79.69" cy="169.7" rx="8" ry="9"/><ellipse class="cls-1" cx="115.54" cy="169.7" rx="8" ry="9"/><ellipse class="cls-1" cx="151.39" cy="169.7" rx="8" ry="9"/><ellipse class="cls-1" cx="8" cy="209.88" rx="8" ry="9"/><ellipse class="cls-1" cx="43.85" cy="209.88" rx="8" ry="9"/><ellipse class="cls-1" cx="79.69" cy="209.88" rx="8" ry="9"/><ellipse class="cls-1" cx="115.54" cy="209.88" rx="8" ry="9"/><ellipse class="cls-1" cx="151.39" cy="209.88" rx="8" ry="9"/><ellipse class="cls-1" cx="8" cy="250.05" rx="8" ry="9"/><ellipse class="cls-1" cx="43.85" cy="250.05" rx="8" ry="9"/><ellipse class="cls-1" cx="79.69" cy="250.05" rx="8" ry="9"/><ellipse class="cls-1" cx="115.54" cy="250.05" rx="8" ry="9"/><ellipse class="cls-1" cx="151.39" cy="250.05" rx="8" ry="9"/><ellipse class="cls-1" cx="8" cy="290.23" rx="8" ry="9"/><ellipse class="cls-1" cx="43.85" cy="290.23" rx="8" ry="9"/><ellipse class="cls-1" cx="79.69" cy="290.23" rx="8" ry="9"/><ellipse class="cls-1" cx="115.54" cy="290.23" rx="8" ry="9"/><ellipse class="cls-1" cx="151.39" cy="290.23" rx="8" ry="9"/><ellipse class="cls-1" cx="187.23" cy="169.7" rx="8" ry="9"/><ellipse class="cls-1" cx="223.08" cy="169.7" rx="8" ry="9"/><ellipse class="cls-1" cx="258.92" cy="169.7" rx="8" ry="9"/><ellipse class="cls-1" cx="294.77" cy="169.7" rx="8" ry="9"/><ellipse class="cls-1" cx="330.62" cy="169.7" rx="8" ry="9"/><ellipse class="cls-1" cx="187.23" cy="209.88" rx="8" ry="9"/><ellipse class="cls-1" cx="223.08" cy="209.88" rx="8" ry="9"/><ellipse class="cls-1" cx="258.92" cy="209.88" rx="8" ry="9"/><ellipse class="cls-1" cx="294.77" cy="209.88" rx="8" ry="9"/><ellipse class="cls-1" cx="330.62" cy="209.88" rx="8" ry="9"/><ellipse class="cls-1" cx="187.23" cy="250.05" rx="8" ry="9"/><ellipse class="cls-1" cx="223.08" cy="250.05" rx="8" ry="9"/><ellipse class="cls-1" cx="258.92" cy="250.05" rx="8" ry="9"/><ellipse class="cls-1" cx="294.77" cy="250.05" rx="8" ry="9"/><ellipse class="cls-1" cx="330.62" cy="250.05" rx="8" ry="9"/><ellipse class="cls-1" cx="187.23" cy="290.23" rx="8" ry="9"/><ellipse class="cls-1" cx="223.08" cy="290.23" rx="8" ry="9"/><ellipse class="cls-1" cx="258.92" cy="290.23" rx="8" ry="9"/><ellipse class="cls-1" cx="294.77" cy="290.23" rx="8" ry="9"/><ellipse class="cls-1" cx="330.62" cy="290.23" rx="8" ry="9"/></g></g></svg>